<?xml version="1.0" standalone="no"?>
<!DOCTYPE svg PUBLIC "-//W3C//DTD SVG 20010904//EN"
 "http://www.w3.org/TR/2001/REC-SVG-20010904/DTD/svg10.dtd">
<svg version="1.0" xmlns="http://www.w3.org/2000/svg"
 width="240.000000pt" height="240.000000pt" viewBox="0 0 240.000000 240.000000"
 preserveAspectRatio="xMidYMid meet">

<g transform="translate(0.000000,240.000000) scale(0.100000,-0.100000)"
fill="#000000" stroke="none">
<path d="M1095 2353 c-252 -40 -483 -171 -635 -360 -140 -174 -206 -349 -217
-573 -7 -150 5 -239 51 -373 94 -276 329 -510 607 -606 136 -47 192 -56 349
-55 167 1 279 25 416 89 l79 36 70 -36 c91 -47 163 -65 256 -65 66 0 78 3 97
23 31 33 27 59 -18 126 -40 59 -71 133 -84 202 -6 32 -1 46 35 103 52 83 91
178 119 292 20 79 22 106 17 244 -4 128 -9 170 -31 243 -101 341 -361 591
-711 687 -61 17 -114 23 -225 25 -80 2 -158 1 -175 -2z m390 -82 c175 -46 365
-170 484 -313 70 -84 150 -238 182 -348 30 -107 37 -290 15 -399 -24 -116 -67
-231 -121 -316 -30 -49 -45 -84 -45 -107 0 -78 50 -211 104 -276 15 -16 26
-33 26 -37 0 -13 -153 2 -209 21 -30 10 -81 34 -113 54 l-59 35 -88 -43 c-477
-232 -1037 -41 -1268 434 -60 123 -83 215 -89 359 -5 97 -2 138 14 215 76 368
353 648 722 731 115 26 329 21 445 -10z"/>
<path d="M663 1520 l2 -355 32 -66 c43 -88 130 -170 225 -214 116 -53 150 -59
308 -59 130 0 153 3 225 27 172 57 288 165 329 306 13 45 16 113 16 385 l0
331 -109 -109 -110 -109 -73 36 c-95 48 -173 67 -273 67 -113 0 -183 -16 -278
-64 l-82 -42 -107 111 -108 110 3 -355z m366 -125 c46 -16 113 -66 136 -102
15 -22 14 -25 -27 -69 -45 -49 -92 -77 -147 -89 l-34 -7 23 36 c29 48 31 120
4 167 -11 19 -24 34 -30 33 -14 -1 -54 -85 -54 -114 0 -15 11 -48 24 -73 26
-53 24 -54 -51 -32 -56 17 -153 95 -153 124 0 25 90 108 135 125 52 19 122 20
174 1z m586 -9 c45 -21 125 -94 125 -114 0 -5 -15 -26 -34 -48 -37 -43 -100
-79 -160 -90 l-39 -7 22 37 c30 47 31 122 4 168 -10 18 -23 33 -29 32 -14 -1
-54 -85 -54 -114 0 -15 11 -48 24 -74 l24 -47 -32 7 c-51 11 -103 41 -146 86
-22 23 -40 45 -40 50 0 14 61 77 96 99 74 45 162 51 239 15z m-322 -357 l-63
-29 -62 29 -63 29 125 0 125 0 -62 -29z"/>
</g>
</svg>
